<svg viewBox="0 0 1225 266" fill="none" xmlns="http://www.w3.org/2000/svg">
<path d="M331.096 220.894H350.173C353.218 220.894 355.955 221.512 358.384 222.748C360.812 223.943 362.705 225.632 364.063 227.816C365.463 229.999 366.162 232.471 366.162 235.232C366.162 237.992 365.463 240.464 364.063 242.648C362.705 244.831 360.812 246.541 358.384 247.777C355.955 248.972 353.218 249.569 350.173 249.569H340.233V263.351H331.096V220.894ZM349.247 241.226C351.51 241.226 353.342 240.691 354.741 239.619C356.141 238.507 356.84 237.044 356.84 235.232C356.84 233.419 356.141 231.977 354.741 230.906C353.342 229.793 351.51 229.237 349.247 229.237H340.233V241.226H349.247Z" fill="black"/>
<path d="M407.36 255.131V263.351H377.109V220.894H386.246V255.131H407.36Z" fill="black"/>
<path d="M445.536 256.058H427.139L424.175 263.351H413.989L431.275 220.894H441.461L458.748 263.351H448.499L445.536 256.058ZM442.634 248.951L436.337 233.439L430.04 248.951H442.634Z" fill="black"/>
<path d="M478.589 229.113H465.378V220.894H500.938V229.113H487.664V263.351H478.589V229.113Z" fill="black"/>
<path d="M520.426 229.113V238.322H541.787V246.541H520.426V263.351H511.289V220.894H543.948V229.113H520.426Z" fill="black"/>
<path d="M574.955 264.092C570.962 264.092 567.217 263.103 563.719 261.126C560.261 259.107 557.504 256.408 555.446 253.03C553.388 249.652 552.359 246.005 552.359 242.091C552.359 238.177 553.388 234.552 555.446 231.215C557.504 227.836 560.261 225.158 563.719 223.181C567.217 221.162 570.962 220.152 574.955 220.152C578.947 220.152 582.672 221.162 586.129 223.181C589.586 225.158 592.323 227.836 594.34 231.215C596.398 234.552 597.427 238.177 597.427 242.091C597.427 246.005 596.398 249.652 594.34 253.03C592.323 256.408 589.586 259.107 586.129 261.126C582.672 263.103 578.947 264.092 574.955 264.092ZM574.955 255.811C577.26 255.811 579.42 255.193 581.437 253.957C583.495 252.68 585.121 250.991 586.314 248.889C587.508 246.788 588.105 244.522 588.105 242.091C588.105 239.702 587.508 237.456 586.314 235.355C585.121 233.254 583.495 231.585 581.437 230.349C579.42 229.072 577.26 228.434 574.955 228.434C572.609 228.434 570.427 229.072 568.411 230.349C566.394 231.585 564.768 233.254 563.533 235.355C562.34 237.456 561.743 239.702 561.743 242.091C561.743 244.522 562.34 246.788 563.533 248.889C564.727 250.991 566.332 252.68 568.349 253.957C570.407 255.193 572.609 255.811 574.955 255.811Z" fill="black"/>
<path d="M643.867 235.232C643.867 238.528 642.9 241.391 640.966 243.822C639.073 246.211 636.521 247.88 633.311 248.828L643.497 263.351H633.125L623.433 249.569H617.938V263.351H608.801V220.894H627.878C630.923 220.894 633.66 221.512 636.089 222.748C638.517 223.943 640.41 225.632 641.768 227.816C643.168 229.999 643.867 232.471 643.867 235.232ZM617.938 241.226H626.952C629.215 241.226 631.047 240.691 632.446 239.619C633.846 238.507 634.545 237.044 634.545 235.232C634.545 233.419 633.846 231.977 632.446 230.906C631.047 229.793 629.215 229.237 626.952 229.237H617.938V241.226Z" fill="black"/>
<path d="M655.357 220.894H664.494L677.582 244.872L690.732 220.894H699.807V263.351H690.732V236.9L677.582 260.879L664.494 236.9V263.351H655.357V220.894Z" fill="black"/>
<path d="M742.713 229.113V237.58H764.074V245.799H742.713V255.131H766.235V263.351H733.576V220.894H766.235V229.113H742.713Z" fill="black"/>
<path d="M778.142 220.894H787.279L807.714 248.333V220.894H816.851V263.351H807.714L787.279 235.911V263.351H778.142V220.894Z" fill="black"/>
<path d="M849.311 239.496H868.017V256.985C865.918 259.21 863.325 260.961 860.238 262.238C857.192 263.474 854.085 264.092 850.916 264.092C846.882 264.092 843.116 263.103 839.618 261.126C836.12 259.107 833.321 256.408 831.222 253.03C829.164 249.652 828.135 246.005 828.135 242.091C828.135 238.177 829.164 234.552 831.222 231.215C833.321 227.836 836.12 225.158 839.618 223.181C843.116 221.162 846.882 220.152 850.916 220.152C854.085 220.152 857.192 220.791 860.238 222.068C863.325 223.304 865.918 225.035 868.017 227.259L861.411 233.192C860.135 231.75 858.55 230.597 856.657 229.731C854.764 228.866 852.85 228.434 850.916 228.434C848.529 228.434 846.306 229.072 844.248 230.349C842.19 231.585 840.544 233.254 839.309 235.355C838.116 237.415 837.519 239.661 837.519 242.091C837.519 244.522 838.116 246.788 839.309 248.889C840.544 250.991 842.19 252.68 844.248 253.957C846.306 255.193 848.529 255.811 850.916 255.811C852.356 255.811 853.797 255.584 855.237 255.131C856.678 254.637 857.974 253.957 859.127 253.092V246.603H849.311V239.496Z" fill="black"/>
<path d="M880.176 220.894H889.313V263.351H880.176V220.894Z" fill="black"/>
<path d="M903.158 220.894H912.295L932.73 248.333V220.894H941.867V263.351H932.73L912.295 235.911V263.351H903.158V220.894Z" fill="black"/>
<path d="M964.819 229.113V237.58H986.18V245.799H964.819V255.131H988.341V263.351H955.682V220.894H988.341V229.113H964.819Z" fill="black"/>
<path d="M1009.39 229.113V237.58H1030.75V245.799H1009.39V255.131H1032.91V263.351H1000.25V220.894H1032.91V229.113H1009.39Z" fill="black"/>
<path d="M1079.88 235.232C1079.88 238.528 1078.91 241.391 1076.98 243.822C1075.09 246.211 1072.53 247.88 1069.32 248.828L1079.51 263.351H1069.14L1059.45 249.569H1053.95V263.351H1044.81V220.894H1063.89C1066.94 220.894 1069.67 221.512 1072.1 222.748C1074.53 223.943 1076.42 225.632 1077.78 227.816C1079.18 229.999 1079.88 232.471 1079.88 235.232ZM1053.95 241.226H1062.96C1065.23 241.226 1067.06 240.691 1068.46 239.619C1069.86 238.507 1070.56 237.044 1070.56 235.232C1070.56 233.419 1069.86 231.977 1068.46 230.906C1067.06 229.793 1065.23 229.237 1062.96 229.237H1053.95V241.226Z" fill="black"/>
<path d="M1091.37 220.894H1100.51V263.351H1091.37V220.894Z" fill="black"/>
<path d="M1114.35 220.894H1123.49L1143.92 248.333V220.894H1153.06V263.351H1143.92L1123.49 235.911V263.351H1114.35V220.894Z" fill="black"/>
<path d="M1185.52 239.496H1204.23V256.985C1202.13 259.21 1199.53 260.961 1196.45 262.238C1193.4 263.474 1190.29 264.092 1187.13 264.092C1183.09 264.092 1179.33 263.103 1175.83 261.126C1172.33 259.107 1169.53 256.408 1167.43 253.03C1165.37 249.652 1164.34 246.005 1164.34 242.091C1164.34 238.177 1165.37 234.552 1167.43 231.215C1169.53 227.836 1172.33 225.158 1175.83 223.181C1179.33 221.162 1183.09 220.152 1187.13 220.152C1190.29 220.152 1193.4 220.791 1196.45 222.068C1199.53 223.304 1202.13 225.035 1204.23 227.259L1197.62 233.192C1196.34 231.75 1194.76 230.597 1192.87 229.731C1190.97 228.866 1189.06 228.434 1187.13 228.434C1184.74 228.434 1182.52 229.072 1180.46 230.349C1178.4 231.585 1176.75 233.254 1175.52 235.355C1174.33 237.415 1173.73 239.661 1173.73 242.091C1173.73 244.522 1174.33 246.788 1175.52 248.889C1176.75 250.991 1178.4 252.68 1180.46 253.957C1182.52 255.193 1184.74 255.811 1187.13 255.811C1188.57 255.811 1190.01 255.584 1191.45 255.131C1192.89 254.637 1194.18 253.957 1195.34 253.092V246.603H1185.52V239.496Z" fill="black"/>
<path d="M311.348 145.735H379.398V159.616H311.348V145.735ZM1156.89 145.735H1224.94V159.616H1156.89V145.735Z" fill="#FFB800"/>
<path d="M354.758 70.1394C359.145 70.2267 363.49 69.268 367.434 67.3436C371.378 65.4187 374.808 62.5829 377.442 59.0698L389.634 71.5587C379.993 82.3441 368.935 87.7371 355.892 87.7371C350.007 87.9617 344.136 86.9968 338.631 84.9001C333.126 82.803 328.1 79.617 323.852 75.532C319.716 71.5439 316.467 66.7268 314.317 61.3955C312.168 56.0646 311.166 50.3395 311.377 44.5946C311.215 38.7879 312.267 33.0116 314.464 27.6352C316.661 22.2589 319.955 17.4011 324.136 13.3728C328.632 9.12573 333.942 5.83475 339.745 3.69849C345.547 1.56223 351.721 0.624965 357.895 0.943272C364.069 1.26158 370.115 2.82886 375.668 5.55052C381.22 8.27219 386.164 12.0918 390.201 16.7788L378.575 30.1189C376.015 26.6671 372.678 23.8667 368.836 21.9438C364.995 20.0209 360.755 19.0294 356.459 19.0494C349.764 18.9205 343.273 21.3573 338.313 25.8615C335.739 28.2281 333.719 31.1341 332.395 34.3721C331.072 37.6101 330.479 41.1005 330.657 44.5946C330.478 48.0809 331.015 51.5673 332.234 54.8377C333.453 58.1086 335.329 61.0947 337.746 63.6112C342.411 67.8252 348.474 70.1517 354.758 70.1394ZM404.378 86.6017V2.30341H423.091V69.8555H459.101V86.6017H404.378ZM541.328 74.9651C532.809 82.988 521.552 87.4549 509.855 87.4549C498.158 87.4549 486.901 82.988 478.382 74.9651C474.227 70.9766 470.947 66.1661 468.75 60.8401C466.553 55.5138 465.488 49.7878 465.622 44.0272C465.462 38.2629 466.515 32.5293 468.713 27.1991C470.912 21.869 474.206 17.0615 478.382 13.0893C486.901 5.0665 498.158 0.599487 509.855 0.599487C521.552 0.599487 532.809 5.0665 541.328 13.0893C545.481 17.0777 548.762 21.8881 550.959 27.2144C553.157 32.5407 554.219 38.2664 554.087 44.0272C554.248 49.7915 553.194 55.5249 550.996 60.8554C548.799 66.1854 545.502 70.9926 541.328 74.9651ZM534.805 44.0272C534.859 36.8949 532.229 30.0043 527.434 24.7265C525.178 22.2256 522.421 20.2263 519.346 18.858C516.268 17.4897 512.938 16.7827 509.571 16.7827C506.205 16.7827 502.875 17.4897 499.796 18.858C496.722 20.2263 493.965 22.2256 491.708 24.7265C486.861 29.9707 484.221 36.8837 484.336 44.0272C484.284 51.1594 486.915 58.0501 491.708 63.3278C493.965 65.8286 496.722 67.8281 499.796 69.1963C502.875 70.5646 506.205 71.2716 509.571 71.2716C512.938 71.2716 516.268 70.5646 519.346 69.1963C522.421 67.8281 525.178 65.8286 527.434 63.3278C529.891 60.7676 531.809 57.7402 533.072 54.4253C534.34 51.1099 534.929 47.5741 534.805 44.0272ZM592.364 65.0302C593.862 66.9715 595.801 68.5256 598.023 69.5626C600.241 70.5996 602.678 71.0895 605.123 70.991C607.535 71.1191 609.942 70.6408 612.12 69.5997C614.301 68.5585 616.182 66.9876 617.602 65.0302C620.857 60.3943 622.454 54.794 622.137 49.1356V2.58707H640.852V49.7034C640.852 61.908 637.448 71.2749 630.644 77.803C627.216 81.0916 623.17 83.6637 618.742 85.3694C614.309 87.0751 609.584 87.8801 604.839 87.7371C600.052 87.8801 595.286 87.0763 590.808 85.3714C586.334 83.667 582.235 81.0949 578.753 77.803C571.95 71.2749 568.546 61.908 568.546 49.7034V2.58707H587.26V49.1356C587.256 54.8385 589.042 60.3989 592.364 65.0302ZM724.78 13.3729C732.719 20.7526 736.971 30.9705 736.971 44.0268C736.971 57.0831 732.999 67.585 725.344 75.2486C717.689 82.9122 705.498 86.6017 689.619 86.6017H660.414V2.30341H690.187C705.214 2.30341 716.841 5.99325 724.78 13.3729ZM711.169 63.6112C715.705 59.354 717.973 52.8259 717.973 44.5946C717.973 36.3634 715.705 29.8352 711.169 25.5778C706.63 21.3202 699.542 18.7657 689.903 18.7657H679.412V70.1394H691.319C698.517 70.5234 705.601 68.1943 711.169 63.6112ZM843.865 2.30341H862.58V86.6017H843.865L803.601 33.8089V86.6017H784.891V2.30341H802.469L843.865 56.5154V2.30341ZM943.388 86.6017L935.449 68.4366H900.004L892.069 86.6017H871.935L908.227 2.30341H926.374L962.671 86.6017H943.388ZM918.155 27.5646L907.664 51.9743H928.646L918.155 27.5646ZM1002.93 18.7655V86.8855H984.216V18.7655H960.399V2.58707H1027.03V18.7655H1002.93ZM1040.36 2.30341H1059.07V86.6017H1040.36V2.30341ZM1110.96 55.948L1132.51 2.30341H1152.93L1119.18 86.6017H1103.31L1069.56 2.30341H1089.98L1110.96 55.948ZM1223.53 2.30341V19.0496H1181.56V36.3634H1219.28V52.542H1181.56V70.1394H1224.94V86.8855H1162.85V2.58724H1223.53V2.30341Z" fill="black"/>
<path opacity="0.65" d="M171.58 89.0313L121.147 38.6289H176.541V0.599487H88.0766V38.6289L138.509 89.0313H171.58ZM126.108 177.008H93.0373L134.789 218.762L143.057 227.411H88.0766V265.44H176.541V226.997L151.325 202.168L126.108 177.008ZM226.974 89.0307V143.985L218.293 135.295L176.54 93.5412V127.019L201.344 151.848L226.56 177.049H264.592V89.0307H226.974ZM88.0754 139.019L38.0555 89.0307H0.0239105V177.008H37.6421V122.053L88.0754 172.497V139.019Z" fill="black"/>
<path d="M417.8 174.073C424.353 174.073 430.294 171.253 434.459 166.777L426.864 160.033C424.66 162.792 421.413 164.57 417.8 164.57C411.369 164.57 405.919 158.93 405.919 152.247C405.919 145.626 411.369 139.986 417.8 139.986C421.353 139.986 424.66 141.764 426.803 144.522L434.459 137.717C430.294 133.303 424.353 130.483 417.8 130.483C405.49 130.483 395.14 140.415 395.14 152.247C395.14 164.08 405.49 174.073 417.8 174.073ZM464.703 174.073C476.952 174.073 487.302 164.08 487.302 152.247C487.302 140.415 476.952 130.483 464.703 130.483C452.392 130.483 442.042 140.415 442.042 152.247C442.042 164.08 452.392 174.073 464.703 174.073ZM464.703 164.57C458.272 164.57 452.821 158.93 452.821 152.247C452.821 145.626 458.272 139.986 464.703 139.986C471.133 139.986 476.523 145.626 476.523 152.247C476.523 158.93 471.133 164.57 464.703 164.57ZM497.969 173.337H508.444V148.936L520.569 170.885L532.694 148.936V173.337H543.168V131.219H532.694L520.569 153.167L508.444 131.219H497.969V173.337ZM556.055 173.337H566.529V148.936L578.654 170.885L590.783 148.936V173.337H601.254V131.219H590.783L578.654 153.167L566.529 131.219H556.055V173.337ZM632.76 174.073C644.276 174.073 652.297 166.164 652.297 154.884V131.219H641.889V154.393C641.889 160.34 638.09 164.57 632.76 164.57C627.496 164.57 623.697 160.34 623.697 154.393V131.219H613.222V154.884C613.222 166.164 621.31 174.073 632.76 174.073ZM664.274 173.337H674.749V148.446L693.122 173.337H703.534V131.219H693.122V156.11L674.749 131.219H664.274V173.337ZM716.442 173.337H726.912V131.219H716.442V173.337ZM749.701 173.337H760.171V140.599H772.975V131.219H736.963V140.599H749.701V173.337ZM795.896 173.337H806.428V158.807L822.719 131.219H811.083L801.16 148.998L791.669 131.219H779.602L795.896 158.807V173.337ZM870.457 157.091H879.401V162.363C877.318 163.773 874.869 164.57 872.416 164.57C865.864 164.57 860.291 158.93 860.291 152.247C860.291 145.626 865.864 139.986 872.416 139.986C876.03 139.986 879.644 141.702 881.911 144.522L889.567 137.717C885.34 133.18 878.849 130.483 872.416 130.483C859.987 130.483 849.512 140.415 849.512 152.247C849.512 164.08 859.987 174.073 872.416 174.073C878.849 174.073 885.34 171.375 889.567 166.777V149.182H870.457V157.091ZM936.721 173.337L926.736 159.175C932.679 157.091 936.474 152.125 936.474 145.687C936.474 137.166 929.798 131.219 920.492 131.219H900.955V173.337H911.425V160.156H915.591L924.839 173.337H936.721ZM911.425 140.783H919.571C923.184 140.783 925.695 142.744 925.695 145.687C925.695 148.63 923.184 150.592 919.571 150.592H911.425V140.783ZM967.832 174.073C980.08 174.073 990.431 164.08 990.431 152.247C990.431 140.415 980.08 130.483 967.832 130.483C955.522 130.483 945.17 140.415 945.17 152.247C945.17 164.08 955.522 174.073 967.832 174.073ZM967.832 164.57C961.403 164.57 955.95 158.93 955.95 152.247C955.95 145.626 961.403 139.986 967.832 139.986C974.261 139.986 979.652 145.626 979.652 152.247C979.652 158.93 974.261 164.57 967.832 164.57ZM1019.72 174.073C1031.23 174.073 1039.25 166.164 1039.25 154.884V131.219H1028.84V154.393C1028.84 160.34 1025.04 164.57 1019.72 164.57C1014.45 164.57 1010.65 160.34 1010.65 154.393V131.219H1000.18V154.884C1000.18 166.164 1008.27 174.073 1019.72 174.073ZM1051.23 173.337H1061.7V160.156H1070.77C1080.08 160.156 1086.75 154.209 1086.75 145.687C1086.75 137.166 1080.08 131.219 1070.77 131.219H1051.23V173.337ZM1061.7 150.592V140.783H1069.85C1073.46 140.783 1075.97 142.744 1075.97 145.687C1075.97 148.63 1073.46 150.592 1069.85 150.592H1061.7ZM1113.59 174.073C1124 174.073 1130.43 168.801 1130.43 160.34C1130.43 152.431 1124.37 149.734 1114.94 147.71C1108.69 146.362 1106.67 145.503 1106.67 142.928C1106.67 140.844 1108.57 139.25 1111.94 139.25C1115.86 139.25 1120.08 140.783 1123.94 143.725L1129.27 136.246C1124.8 132.567 1119.29 130.483 1112.18 130.483C1102.63 130.483 1096.14 135.878 1096.14 143.971C1096.14 152.431 1102.81 154.884 1111.81 156.907C1117.94 158.378 1119.9 158.93 1119.9 161.444C1119.9 163.712 1117.88 165.306 1113.96 165.306C1108.81 165.306 1104.22 163.344 1100.12 159.972L1094.18 167.022C1099.32 171.621 1106.12 174.073 1113.59 174.073Z" fill="black"/>
<path d="M37.6319 177.087H0.0136566V265.519H88.0652V227.49H37.6319V177.087ZM226.963 177.501V227.49H176.53V265.519H264.581V177.087H226.55L226.963 177.501ZM0.0136566 89.1103H38.0452L37.6319 88.6964V38.7079H88.0652V0.678467H0.0136566V89.1103ZM176.53 0.678467V38.7079H226.963V89.1103H264.581V0.678467H176.53Z" fill="black"/>
</svg>
