<svg width="239" height="48" viewBox="0 0 239 48" fill="none" xmlns="http://www.w3.org/2000/svg">
<path d="M45.8945 33.1629H48.6635C49.1056 33.1629 49.5029 33.2547 49.8554 33.4383C50.2078 33.6157 50.4826 33.8666 50.6798 34.1909C50.8829 34.5153 50.9845 34.8824 50.9845 35.2924C50.9845 35.7024 50.8829 36.0696 50.6798 36.3939C50.4826 36.7182 50.2078 36.9722 49.8554 37.1558C49.5029 37.3332 49.1056 37.422 48.6635 37.422H47.2208V39.4689H45.8945V33.1629ZM48.5291 36.1828C48.8577 36.1828 49.1235 36.1032 49.3267 35.9441C49.5298 35.7789 49.6313 35.5617 49.6313 35.2924C49.6313 35.0232 49.5298 34.809 49.3267 34.6499C49.1235 34.4847 48.8577 34.4021 48.5291 34.4021H47.2208V36.1828H48.5291Z" fill="#0086FF"/>
<path d="M56.9644 38.2481V39.4689H52.5734V33.1629H53.8996V38.2481H56.9644Z" fill="#0086FF"/>
<path d="M62.5057 38.3858H59.8353L59.4052 39.4689H57.9266L60.4357 33.1629H61.9143L64.4234 39.4689H62.9359L62.5057 38.3858ZM62.0845 37.3302L61.1705 35.0262L60.2565 37.3302H62.0845Z" fill="#0086FF"/>
<path d="M67.3034 34.3837H65.3858V33.1629H70.5474V34.3837H68.6207V39.4689H67.3034V34.3837Z" fill="#0086FF"/>
<path d="M73.3762 34.3837V35.7514H76.4767V36.9722H73.3762V39.4689H72.0499V33.1629H76.7904V34.3837H73.3762Z" fill="#0086FF"/>
<path d="M81.2911 39.579C80.7116 39.579 80.168 39.4322 79.6602 39.1384C79.1584 38.8386 78.7581 38.4378 78.4594 37.936C78.1607 37.4342 78.0113 36.8926 78.0113 36.3113C78.0113 35.73 78.1607 35.1915 78.4594 34.6958C78.7581 34.194 79.1584 33.7962 79.6602 33.5025C80.168 33.2027 80.7116 33.0527 81.2911 33.0527C81.8706 33.0527 82.4113 33.2027 82.9131 33.5025C83.4149 33.7962 83.8122 34.194 84.1049 34.6958C84.4036 35.1915 84.553 35.73 84.553 36.3113C84.553 36.8926 84.4036 37.4342 84.1049 37.936C83.8122 38.4378 83.4149 38.8386 82.9131 39.1384C82.4113 39.4322 81.8706 39.579 81.2911 39.579ZM81.2911 38.3491C81.6257 38.3491 81.9393 38.2573 82.232 38.0737C82.5307 37.884 82.7667 37.6331 82.94 37.321C83.1132 37.0089 83.1998 36.6723 83.1998 36.3113C83.1998 35.9564 83.1132 35.6229 82.94 35.3108C82.7667 34.9987 82.5307 34.7509 82.232 34.5673C81.9393 34.3776 81.6257 34.2827 81.2911 34.2827C80.9506 34.2827 80.634 34.3776 80.3412 34.5673C80.0485 34.7509 79.8125 34.9987 79.6333 35.3108C79.4601 35.6229 79.3734 35.9564 79.3734 36.3113C79.3734 36.6723 79.4601 37.0089 79.6333 37.321C79.8066 37.6331 80.0395 37.884 80.3323 38.0737C80.631 38.2573 80.9506 38.3491 81.2911 38.3491Z" fill="#0086FF"/>
<path d="M91.2939 35.2924C91.2939 35.782 91.1536 36.2073 90.8728 36.5683C90.598 36.9232 90.2276 37.1711 89.7616 37.3118L91.2402 39.4689H89.7347L88.3278 37.422H87.5303V39.4689H86.204V33.1629H88.973C89.4151 33.1629 89.8124 33.2547 90.1648 33.4383C90.5173 33.6157 90.7921 33.8666 90.9893 34.1909C91.1924 34.5153 91.2939 34.8824 91.2939 35.2924ZM87.5303 36.1828H88.8386C89.1672 36.1828 89.433 36.1032 89.6361 35.9441C89.8393 35.7789 89.9408 35.5617 89.9408 35.2924C89.9408 35.0232 89.8393 34.809 89.6361 34.6499C89.433 34.4847 89.1672 34.4021 88.8386 34.4021H87.5303V36.1828Z" fill="#0086FF"/>
<path d="M92.9616 33.1629H94.2879L96.1877 36.7244L98.0964 33.1629H99.4137V39.4689H98.0964V35.5403L96.1877 39.1017L94.2879 35.5403V39.4689H92.9616V33.1629Z" fill="#0086FF"/>
<path d="M105.642 34.3837V35.6412H108.742V36.862H105.642V38.2481H109.056V39.4689H104.315V33.1629H109.056V34.3837H105.642Z" fill="#0086FF"/>
<path d="M110.784 33.1629H112.11L115.077 37.2384V33.1629H116.403V39.4689H115.077L112.11 35.3934V39.4689H110.784V33.1629Z" fill="#0086FF"/>
<path d="M121.114 35.9258H123.83V38.5235C123.525 38.8539 123.149 39.114 122.701 39.3037C122.258 39.4873 121.807 39.579 121.347 39.579C120.762 39.579 120.215 39.4322 119.708 39.1384C119.2 38.8386 118.794 38.4378 118.489 37.936C118.19 37.4342 118.041 36.8926 118.041 36.3113C118.041 35.73 118.19 35.1915 118.489 34.6958C118.794 34.194 119.2 33.7962 119.708 33.5025C120.215 33.2027 120.762 33.0527 121.347 33.0527C121.807 33.0527 122.258 33.1476 122.701 33.3373C123.149 33.5209 123.525 33.7779 123.83 34.1083L122.871 34.9895C122.686 34.7753 122.456 34.604 122.181 34.4755C121.906 34.347 121.628 34.2827 121.347 34.2827C121.001 34.2827 120.678 34.3776 120.38 34.5673C120.081 34.7509 119.842 34.9987 119.663 35.3108C119.489 35.6168 119.403 35.9503 119.403 36.3113C119.403 36.6723 119.489 37.0089 119.663 37.321C119.842 37.6331 120.081 37.884 120.38 38.0737C120.678 38.2573 121.001 38.3491 121.347 38.3491C121.557 38.3491 121.766 38.3154 121.975 38.2481C122.184 38.1746 122.372 38.0737 122.539 37.9452V36.9814H121.114V35.9258Z" fill="#0086FF"/>
<path d="M125.595 33.1629H126.921V39.4689H125.595V33.1629Z" fill="#0086FF"/>
<path d="M128.931 33.1629H130.257L133.223 37.2384V33.1629H134.549V39.4689H133.223L130.257 35.3934V39.4689H128.931V33.1629Z" fill="#0086FF"/>
<path d="M137.881 34.3837V35.6412H140.981V36.862H137.881V38.2481H141.295V39.4689H136.555V33.1629H141.295V34.3837H137.881Z" fill="#0086FF"/>
<path d="M144.35 34.3837V35.6412H147.45V36.862H144.35V38.2481H147.764V39.4689H143.023V33.1629H147.764V34.3837H144.35Z" fill="#0086FF"/>
<path d="M154.582 35.2924C154.582 35.782 154.442 36.2073 154.161 36.5683C153.886 36.9232 153.516 37.1711 153.05 37.3118L154.528 39.4689H153.023L151.616 37.422H150.818V39.4689H149.492V33.1629H152.261C152.703 33.1629 153.101 33.2547 153.453 33.4383C153.806 33.6157 154.08 33.8666 154.277 34.1909C154.481 34.5153 154.582 34.8824 154.582 35.2924ZM150.818 36.1828H152.127C152.455 36.1828 152.721 36.1032 152.924 35.9441C153.127 35.7789 153.229 35.5617 153.229 35.2924C153.229 35.0232 153.127 34.809 152.924 34.6499C152.721 34.4847 152.455 34.4021 152.127 34.4021H150.818V36.1828Z" fill="#0086FF"/>
<path d="M156.25 33.1629H157.576V39.4689H156.25V33.1629Z" fill="#0086FF"/>
<path d="M159.586 33.1629H160.912L163.878 37.2384V33.1629H165.204V39.4689H163.878L160.912 35.3934V39.4689H159.586V33.1629Z" fill="#0086FF"/>
<path d="M169.916 35.9258H172.631V38.5235C172.327 38.8539 171.95 39.114 171.502 39.3037C171.06 39.4873 170.609 39.579 170.149 39.579C169.564 39.579 169.017 39.4322 168.509 39.1384C168.001 38.8386 167.595 38.4378 167.29 37.936C166.992 37.4342 166.842 36.8926 166.842 36.3113C166.842 35.73 166.992 35.1915 167.29 34.6958C167.595 34.194 168.001 33.7962 168.509 33.5025C169.017 33.2027 169.564 33.0527 170.149 33.0527C170.609 33.0527 171.06 33.1476 171.502 33.3373C171.95 33.5209 172.327 33.7779 172.631 34.1083L171.672 34.9895C171.487 34.7753 171.257 34.604 170.982 34.4755C170.708 34.347 170.43 34.2827 170.149 34.2827C169.803 34.2827 169.48 34.3776 169.181 34.5673C168.883 34.7509 168.644 34.9987 168.464 35.3108C168.291 35.6168 168.204 35.9503 168.204 36.3113C168.204 36.6723 168.291 37.0089 168.464 37.321C168.644 37.6331 168.883 37.884 169.181 38.0737C169.48 38.2573 169.803 38.3491 170.149 38.3491C170.358 38.3491 170.567 38.3154 170.776 38.2481C170.985 38.1746 171.174 38.0737 171.341 37.9452V36.9814H169.916V35.9258Z" fill="#0086FF"/>
<path d="M55.087 23.2713C56.0105 23.2897 56.9252 23.0879 57.7555 22.6827C58.5859 22.2775 59.308 21.6805 59.8624 20.9409L62.4292 23.5701C60.3996 25.8407 58.0716 26.9761 55.3258 26.9761C54.0867 27.0234 52.8507 26.8202 51.6918 26.3788C50.5328 25.9373 49.4747 25.2666 48.5805 24.4066C47.7097 23.567 47.0257 22.5529 46.5732 21.4305C46.1206 20.3082 45.9096 19.1029 45.9541 17.8935C45.92 16.671 46.1414 15.4549 46.6039 14.3231C47.0665 13.1912 47.76 12.1685 48.6402 11.3205C49.5868 10.4263 50.7047 9.73351 51.9262 9.28377C53.1478 8.83403 54.4477 8.63671 55.7475 8.70372C57.0473 8.77074 58.32 9.10069 59.489 9.67367C60.6579 10.2467 61.6987 11.0508 62.5486 12.0375L60.1011 14.846C59.562 14.1193 58.8597 13.5297 58.0508 13.1249C57.242 12.7201 56.3494 12.5113 55.4452 12.5155C54.0356 12.4884 52.669 13.0014 51.6248 13.9497C51.083 14.4479 50.6576 15.0597 50.379 15.7414C50.1004 16.4231 49.9755 17.1579 50.0131 17.8935C49.9754 18.6274 50.0883 19.3614 50.345 20.0499C50.6016 20.7385 50.9966 21.3672 51.5055 21.897C52.4876 22.7841 53.7641 23.2739 55.087 23.2713ZM65.5332 26.7371V8.99007H69.4728V23.2116H77.0538V26.7371H65.5332ZM94.3649 24.2873C92.5713 25.9763 90.2015 26.9167 87.739 26.9167C85.2765 26.9167 82.9066 25.9763 81.113 24.2873C80.2383 23.4476 79.5478 22.4348 79.0852 21.3136C78.6228 20.1922 78.3986 18.9868 78.4268 17.774C78.393 16.5605 78.6148 15.3534 79.0775 14.2313C79.5403 13.1091 80.2338 12.097 81.113 11.2608C82.9066 9.57177 85.2765 8.63135 87.739 8.63135C90.2015 8.63135 92.5713 9.57177 94.3649 11.2608C95.2392 12.1005 95.9298 13.1132 96.3925 14.2345C96.8552 15.3558 97.0787 16.5612 97.051 17.774C97.0848 18.9876 96.8629 20.1946 96.4002 21.3168C95.9376 22.4389 95.2435 23.4509 94.3649 24.2873ZM92.9915 17.774C93.0028 16.2725 92.4491 14.8218 91.4397 13.7107C90.9649 13.1842 90.3843 12.7633 89.7371 12.4752C89.0889 12.1872 88.388 12.0383 87.6792 12.0383C86.9704 12.0383 86.2694 12.1872 85.6213 12.4752C84.9741 12.7633 84.3937 13.1842 83.9185 13.7107C82.8981 14.8147 82.3422 16.2701 82.3665 17.774C82.3555 19.2755 82.9095 20.7262 83.9185 21.8373C84.3937 22.3638 84.9741 22.7847 85.6213 23.0728C86.2694 23.3608 86.9704 23.5097 87.6792 23.5097C88.388 23.5097 89.0889 23.3608 89.7371 23.0728C90.3843 22.7847 90.9649 22.3638 91.4397 21.8373C91.957 21.2983 92.3608 20.661 92.6268 19.9631C92.8936 19.2651 93.0175 18.5207 92.9915 17.774ZM105.109 22.1957C105.425 22.6044 105.833 22.9316 106.301 23.1499C106.768 23.3682 107.281 23.4713 107.795 23.4506C108.303 23.4776 108.81 23.3769 109.268 23.1577C109.727 22.9385 110.123 22.6078 110.422 22.1957C111.108 21.2197 111.444 20.0407 111.377 18.8495V9.04978H115.317V18.969C115.317 21.5384 114.601 23.5104 113.168 24.8847C112.446 25.577 111.595 26.1185 110.662 26.4776C109.729 26.8367 108.735 27.0062 107.735 26.9761C106.728 27.0062 105.724 26.837 104.782 26.4781C103.84 26.1192 102.977 25.5777 102.244 24.8847C100.811 23.5104 100.095 21.5384 100.095 18.969V9.04978H104.035V18.8495C104.034 20.0501 104.41 21.2207 105.109 22.1957ZM132.986 11.3205C134.658 12.8741 135.553 15.0252 135.553 17.7739C135.553 20.5226 134.717 22.7335 133.105 24.3469C131.493 25.9603 128.927 26.7371 125.584 26.7371H119.435V8.99007H125.704C128.867 8.99007 131.315 9.76688 132.986 11.3205ZM130.121 21.897C131.076 21.0007 131.553 19.6264 131.553 17.8935C131.553 16.1606 131.076 14.7862 130.121 13.8899C129.165 12.9936 127.673 12.4558 125.644 12.4558H123.435V23.2713H125.942C127.457 23.3522 128.948 22.8618 130.121 21.897ZM158.057 8.99007H161.997V26.7371H158.057L149.58 15.6228V26.7371H145.641V8.99007H149.342L158.057 20.4031V8.99007ZM179.009 26.7371L177.338 22.9128H169.875L168.205 26.7371H163.966L171.607 8.99007H175.427L183.068 26.7371H179.009ZM173.697 14.3082L171.488 19.4471H175.905L173.697 14.3082ZM191.544 12.4558V26.7968H187.604V12.4558H182.59V9.04978H196.618V12.4558H191.544ZM199.424 8.99007H203.364V26.7371H199.424V8.99007ZM214.287 20.2837L218.823 8.99007H223.122L216.019 26.7371H212.676L205.572 8.99007H209.87L214.287 20.2837ZM237.986 8.99007V12.5156H229.151V16.1606H237.09V19.5666H229.151V23.2713H238.284V26.7968H225.211V9.04982H237.986V8.99007Z" fill="black"/>
<path d="M179.501 39.3685C180.453 39.3685 181.316 38.9599 181.921 38.3114L180.818 37.3343C180.498 37.7341 180.026 37.9917 179.501 37.9917C178.567 37.9917 177.776 37.1744 177.776 36.2062C177.776 35.2468 178.567 34.4296 179.501 34.4296C180.017 34.4296 180.498 34.6872 180.809 35.0869L181.921 34.1009C181.316 33.4613 180.453 33.0527 179.501 33.0527C177.713 33.0527 176.21 34.4917 176.21 36.2062C176.21 37.9206 177.713 39.3685 179.501 39.3685ZM186.314 39.3685C188.093 39.3685 189.596 37.9206 189.596 36.2062C189.596 34.4917 188.093 33.0527 186.314 33.0527C184.526 33.0527 183.022 34.4917 183.022 36.2062C183.022 37.9206 184.526 39.3685 186.314 39.3685ZM186.314 37.9917C185.38 37.9917 184.588 37.1744 184.588 36.2062C184.588 35.2468 185.38 34.4296 186.314 34.4296C187.248 34.4296 188.031 35.2468 188.031 36.2062C188.031 37.1744 187.248 37.9917 186.314 37.9917ZM191.146 39.2619H192.667V35.7265L194.428 38.9066L196.189 35.7265V39.2619H197.711V33.1593H196.189L194.428 36.3394L192.667 33.1593H191.146V39.2619ZM199.583 39.2619H201.104V35.7265L202.865 38.9066L204.627 35.7265V39.2619H206.148V33.1593H204.627L202.865 36.3394L201.104 33.1593H199.583V39.2619ZM210.724 39.3685C212.397 39.3685 213.562 38.2226 213.562 36.5882V33.1593H212.05V36.5171C212.05 37.3787 211.498 37.9917 210.724 37.9917C209.959 37.9917 209.408 37.3787 209.408 36.5171V33.1593H207.886V36.5882C207.886 38.2226 209.061 39.3685 210.724 39.3685ZM215.301 39.2619H216.823V35.6554L219.491 39.2619H221.004V33.1593H219.491V36.7658L216.823 33.1593H215.301V39.2619ZM222.879 39.2619H224.399V33.1593H222.879V39.2619ZM227.709 39.2619H229.23V34.5184H231.09V33.1593H225.859V34.5184H227.709V39.2619ZM234.419 39.2619H235.949V37.1566L238.315 33.1593H236.625L235.184 35.7354L233.805 33.1593H232.053L234.419 37.1566V39.2619Z" fill="#0086FF"/>
<path d="M18.6154 30.5385L0 21.8078L9.30768 17.4424L18.6154 17.7896L27.9231 17.4424L37.2307 21.8078L18.6154 30.5385ZM5.44773 26.7499L18.6154 32.9228L31.783 26.7499L37.2307 29.3078L18.6154 38.0385L0 29.3078L5.44773 26.7499ZM0 36.8078L5.44773 34.2499L18.6154 40.4228L31.783 34.2499L37.2307 36.8078L18.6154 45.5385L0 36.8078Z" fill="#0086FF"/>
<path d="M18.6154 30.5385L0 21.8078L9.30768 17.4424L18.6154 17.7896L27.9231 17.4424L37.2307 21.8078L18.6154 30.5385ZM5.44773 26.7499L18.6154 32.9228L31.783 26.7499L37.2307 29.3078L18.6154 38.0385L0 29.3078L5.44773 26.7499ZM0 36.8078L5.44773 34.2499L18.6154 40.4228L31.783 34.2499L37.2307 36.8078L18.6154 45.5385L0 36.8078Z" fill="#0086FF"/>
<path d="M21.0019 0H16.0702L15.7106 2.84525C14.8475 3.08533 14.0307 3.43269 13.2704 3.86688L10.9792 2.09435L7.49102 5.56279L9.28905 7.86147C8.86266 8.61237 8.52874 9.41435 8.29243 10.2623L5.38477 10.625L5.45155 15.5288L8.29243 15.8864C8.5236 16.7344 8.86266 17.5414 9.28905 18.2923L7.49102 20.591L10.9792 24.0595L13.2704 22.2869C14.0307 22.7211 14.8475 23.0685 15.7106 23.3086L16.0702 26.1538H21.0019L21.3564 23.3443C22.24 23.1094 23.0825 22.7671 23.8582 22.3278L26.0929 24.0595L29.581 20.591L27.8601 18.3894C28.3173 17.6079 28.6718 16.765 28.9183 15.8711L31.6924 15.5288V10.625L28.9183 10.2827C28.6769 9.39392 28.3173 8.54597 27.8601 7.76442L29.581 5.56279L26.0929 2.09435L23.8582 3.82602C23.0773 3.38672 22.24 3.04447 21.3564 2.80949L21.0019 0ZM18.572 8.99038C20.8426 8.98016 22.6869 10.8038 22.6972 13.0616C22.7074 15.3194 20.8735 17.1532 18.6028 17.1634C16.3322 17.1737 14.4879 15.35 14.4776 13.0922C14.4674 10.8344 16.3013 9.00059 18.572 8.99038Z" fill="#0086FF"/>
<path d="M5.44773 34.25L0 36.8078L18.6154 45.5386L37.2307 36.8078L31.783 34.25L18.6154 40.4229L5.44773 34.25Z" fill="#93EAFF"/>
<path d="M5.44773 26.7368L0 29.2947L18.6154 38.0254L37.2307 29.2947L31.783 26.7368L18.6154 32.9097L5.44773 26.7368Z" fill="#93EAFF"/>
<mask id="mask0_17_374" style="mask-type:alpha" maskUnits="userSpaceOnUse" x="0" y="13" width="38" height="35">
<path d="M18.6154 30.5387L0 21.8079L8.94078 17.614L18.6154 13.0771L28.2758 17.606L37.2307 21.8079L18.6154 30.5387ZM5.44773 27.9808L18.6154 34.1537L31.783 27.9808L37.2307 30.5387L18.6154 39.2694L0 30.5387L5.44773 27.9808ZM0 39.2694L5.44773 36.7116L18.6154 42.8845L31.783 36.7116L37.2307 39.2694L18.6154 48.0002L0 39.2694Z" fill="#0086FF"/>
</mask>
<g mask="url(#mask0_17_374)">
<path d="M21.0019 0H16.0702L15.7106 2.84525C14.8475 3.08533 14.0307 3.43269 13.2704 3.86688L10.9792 2.09435L7.49102 5.56279L9.28905 7.86147C8.86266 8.61237 8.52874 9.41435 8.29243 10.2623L5.38477 10.625L5.45155 15.5288L8.29243 15.8864C8.5236 16.7344 8.86266 17.5414 9.28905 18.2924L7.49102 20.591L10.9792 24.0595L13.2704 22.2869C14.0307 22.7211 14.8475 23.0685 15.7106 23.3086L16.0702 26.1538H21.0019L21.3564 23.3443C22.24 23.1094 23.0825 22.7671 23.8582 22.3278L26.0929 24.0595L29.581 20.591L27.8601 18.3894C28.3173 17.6079 28.6718 16.765 28.9183 15.8711L31.6924 15.5288V10.625L28.9183 10.2827C28.6769 9.39392 28.3173 8.54596 27.8601 7.76442L29.581 5.56279L26.0929 2.09435L23.8582 3.82602C23.0773 3.38672 22.24 3.04447 21.3564 2.80949L21.0019 0ZM18.572 8.99038C20.8426 8.98016 22.6869 10.8038 22.6972 13.0616C22.7074 15.3194 20.8735 17.1532 18.6028 17.1634C16.3322 17.1737 14.4879 15.35 14.4776 13.0922C14.4674 10.8344 16.3013 9.00059 18.572 8.99038Z" fill="#93EAFF"/>
</g>
</svg>
