<svg width="311" height="75" viewBox="0 0 311 75" fill="none" xmlns="http://www.w3.org/2000/svg">
<mask id="mask0_7_2" style="mask-type:luminance" maskUnits="userSpaceOnUse" x="6" y="5" width="299" height="65">
<path d="M6.76343 5H304.84V69.347H6.76343V5Z" fill="white"/>
</mask>
<g mask="url(#mask0_7_2)">
<path d="M87.2491 58.4694H91.8841C92.6241 58.4694 93.2891 58.6194 93.8791 58.9194C94.4691 59.2094 94.9291 59.6194 95.2591 60.1494C95.5991 60.6794 95.7691 61.2794 95.7691 61.9494C95.7691 62.6194 95.5991 63.2194 95.2591 63.7494C94.9291 64.2794 94.4691 64.6944 93.8791 64.9944C93.2891 65.2844 92.6241 65.4294 91.8841 65.4294H89.4691V68.7744H87.2491V58.4694ZM91.6591 63.4044C92.2091 63.4044 92.6541 63.2744 92.9941 63.0144C93.3341 62.7444 93.5041 62.3894 93.5041 61.9494C93.5041 61.5094 93.3341 61.1594 92.9941 60.8994C92.6541 60.6294 92.2091 60.4944 91.6591 60.4944H89.4691V63.4044H91.6591Z" fill="black"/>
<path d="M105.779 66.7794V68.7744H98.4288V58.4694H100.649V66.7794H105.779Z" fill="black"/>
<path d="M115.054 67.0044H110.584L109.864 68.7744H107.389L111.589 58.4694H114.064L118.264 68.7744H115.774L115.054 67.0044ZM114.349 65.2794L112.819 61.5144L111.289 65.2794H114.349Z" fill="black"/>
<path d="M123.085 60.4644H119.875V58.4694H128.515V60.4644H125.29V68.7744H123.085V60.4644Z" fill="black"/>
<path d="M133.25 60.4644V62.6994H138.44V64.6944H133.25V68.7744H131.03V58.4694H138.965V60.4644H133.25Z" fill="black"/>
<path d="M146.499 68.9544C145.529 68.9544 144.619 68.7144 143.769 68.2344C142.929 67.7444 142.259 67.0894 141.759 66.2694C141.259 65.4494 141.009 64.5644 141.009 63.6144C141.009 62.6644 141.259 61.7844 141.759 60.9744C142.259 60.1544 142.929 59.5044 143.769 59.0244C144.619 58.5344 145.529 58.2894 146.499 58.2894C147.469 58.2894 148.374 58.5344 149.214 59.0244C150.054 59.5044 150.719 60.1544 151.209 60.9744C151.709 61.7844 151.959 62.6644 151.959 63.6144C151.959 64.5644 151.709 65.4494 151.209 66.2694C150.719 67.0894 150.054 67.7444 149.214 68.2344C148.374 68.7144 147.469 68.9544 146.499 68.9544ZM146.499 66.9444C147.059 66.9444 147.584 66.7944 148.074 66.4944C148.574 66.1844 148.969 65.7744 149.259 65.2644C149.549 64.7544 149.694 64.2044 149.694 63.6144C149.694 63.0344 149.549 62.4894 149.259 61.9794C148.969 61.4694 148.574 61.0644 148.074 60.7644C147.584 60.4544 147.059 60.2994 146.499 60.2994C145.929 60.2994 145.399 60.4544 144.909 60.7644C144.419 61.0644 144.024 61.4694 143.724 61.9794C143.434 62.4894 143.289 63.0344 143.289 63.6144C143.289 64.2044 143.434 64.7544 143.724 65.2644C144.014 65.7744 144.404 66.1844 144.894 66.4944C145.394 66.7944 145.929 66.9444 146.499 66.9444Z" fill="black"/>
<path d="M163.243 61.9494C163.243 62.7494 163.008 63.4444 162.538 64.0344C162.078 64.6144 161.458 65.0194 160.678 65.2494L163.153 68.7744H160.633L158.278 65.4294H156.943V68.7744H154.723V58.4694H159.358C160.098 58.4694 160.763 58.6194 161.353 58.9194C161.943 59.2094 162.403 59.6194 162.733 60.1494C163.073 60.6794 163.243 61.2794 163.243 61.9494ZM156.943 63.4044H159.133C159.683 63.4044 160.128 63.2744 160.468 63.0144C160.808 62.7444 160.978 62.3894 160.978 61.9494C160.978 61.5094 160.808 61.1594 160.468 60.8994C160.128 60.6294 159.683 60.4944 159.133 60.4944H156.943V63.4044Z" fill="black"/>
<path d="M166.034 58.4694H168.254L171.434 64.2894L174.629 58.4694H176.834V68.7744H174.629V62.3544L171.434 68.1744L168.254 62.3544V68.7744H166.034V58.4694Z" fill="black"/>
<path d="M187.259 60.4644V62.5194H192.449V64.5144H187.259V66.7794H192.974V68.7744H185.039V58.4694H192.974V60.4644H187.259Z" fill="black"/>
<path d="M195.867 58.4694H198.087L203.052 65.1294V58.4694H205.272V68.7744H203.052L198.087 62.1144V68.7744H195.867V58.4694Z" fill="black"/>
<path d="M213.159 62.9844H217.704V67.2294C217.194 67.7694 216.564 68.1944 215.814 68.5044C215.074 68.8044 214.319 68.9544 213.549 68.9544C212.569 68.9544 211.654 68.7144 210.804 68.2344C209.954 67.7444 209.274 67.0894 208.764 66.2694C208.264 65.4494 208.014 64.5644 208.014 63.6144C208.014 62.6644 208.264 61.7844 208.764 60.9744C209.274 60.1544 209.954 59.5044 210.804 59.0244C211.654 58.5344 212.569 58.2894 213.549 58.2894C214.319 58.2894 215.074 58.4444 215.814 58.7544C216.564 59.0544 217.194 59.4744 217.704 60.0144L216.099 61.4544C215.789 61.1044 215.404 60.8244 214.944 60.6144C214.484 60.4044 214.019 60.2994 213.549 60.2994C212.969 60.2994 212.429 60.4544 211.929 60.7644C211.429 61.0644 211.029 61.4694 210.729 61.9794C210.439 62.4794 210.294 63.0244 210.294 63.6144C210.294 64.2044 210.439 64.7544 210.729 65.2644C211.029 65.7744 211.429 66.1844 211.929 66.4944C212.429 66.7944 212.969 66.9444 213.549 66.9444C213.899 66.9444 214.249 66.8894 214.599 66.7794C214.949 66.6594 215.264 66.4944 215.544 66.2844V64.7094H213.159V62.9844Z" fill="black"/>
<path d="M220.658 58.4694H222.878V68.7744H220.658V58.4694Z" fill="black"/>
<path d="M226.242 58.4694H228.462L233.427 65.1294V58.4694H235.647V68.7744H233.427L228.462 62.1144V68.7744H226.242V58.4694Z" fill="black"/>
<path d="M241.224 60.4644V62.5194H246.414V64.5144H241.224V66.7794H246.939V68.7744H239.004V58.4694H246.939V60.4644H241.224Z" fill="black"/>
<path d="M252.052 60.4644V62.5194H257.242V64.5144H252.052V66.7794H257.767V68.7744H249.832V58.4694H257.767V60.4644H252.052Z" fill="black"/>
<path d="M269.18 61.9494C269.18 62.7494 268.945 63.4444 268.475 64.0344C268.015 64.6144 267.395 65.0194 266.615 65.2494L269.09 68.7744H266.57L264.215 65.4294H262.88V68.7744H260.66V58.4694H265.295C266.035 58.4694 266.7 58.6194 267.29 58.9194C267.88 59.2094 268.34 59.6194 268.67 60.1494C269.01 60.6794 269.18 61.2794 269.18 61.9494ZM262.88 63.4044H265.07C265.62 63.4044 266.065 63.2744 266.405 63.0144C266.745 62.7444 266.915 62.3894 266.915 61.9494C266.915 61.5094 266.745 61.1594 266.405 60.8994C266.065 60.6294 265.62 60.4944 265.07 60.4944H262.88V63.4044Z" fill="black"/>
<path d="M271.972 58.4694H274.192V68.7744H271.972V58.4694Z" fill="black"/>
<path d="M277.556 58.4694H279.776L284.741 65.1294V58.4694H286.961V68.7744H284.741L279.776 62.1144V68.7744H277.556V58.4694Z" fill="black"/>
<path d="M294.848 62.9844H299.393V67.2294C298.883 67.7694 298.253 68.1944 297.503 68.5044C296.763 68.8044 296.008 68.9544 295.238 68.9544C294.258 68.9544 293.343 68.7144 292.493 68.2344C291.643 67.7444 290.962 67.0894 290.452 66.2694C289.952 65.4494 289.702 64.5644 289.702 63.6144C289.702 62.6644 289.952 61.7844 290.452 60.9744C290.962 60.1544 291.643 59.5044 292.493 59.0244C293.343 58.5344 294.258 58.2894 295.238 58.2894C296.008 58.2894 296.763 58.4444 297.503 58.7544C298.253 59.0544 298.883 59.4744 299.393 60.0144L297.788 61.4544C297.478 61.1044 297.093 60.8244 296.633 60.6144C296.173 60.4044 295.708 60.2994 295.238 60.2994C294.658 60.2994 294.118 60.4544 293.618 60.7644C293.118 61.0644 292.718 61.4694 292.418 61.9794C292.128 62.4794 291.982 63.0244 291.982 63.6144C291.982 64.2044 292.128 64.7544 292.418 65.2644C292.718 65.7744 293.118 66.1844 293.618 66.4944C294.118 66.7944 294.658 66.9444 295.238 66.9444C295.588 66.9444 295.938 66.8894 296.288 66.7794C296.638 66.6594 296.952 66.4944 297.232 66.2844V64.7094H294.848V62.9844Z" fill="black"/>
<path d="M82.451 40.227H98.985V43.596H82.451V40.227ZM287.892 40.227H304.426V43.596H287.892V40.227Z" fill="#FFB800"/>
<path d="M92.9983 21.8785C94.0641 21.8997 95.1197 21.667 96.078 21.1999C97.0363 20.7327 97.8697 20.0444 98.5096 19.1917L101.472 22.223C99.1296 24.8408 96.4428 26.1498 93.2738 26.1498C91.8438 26.2043 90.4174 25.9701 89.0799 25.4612C87.7423 24.9522 86.5211 24.1789 85.4891 23.1874C84.4841 22.2194 83.6947 21.0502 83.1724 19.7562C82.6501 18.4623 82.4066 17.0727 82.4579 15.6783C82.4186 14.2689 82.6741 12.8669 83.2079 11.562C83.7418 10.257 84.5422 9.07794 85.558 8.10019C86.6505 7.06935 87.9406 6.27057 89.3504 5.75206C90.7602 5.23355 92.2604 5.00606 93.7605 5.08332C95.2606 5.16058 96.7295 5.54099 98.0786 6.20158C99.4276 6.86218 100.629 7.78926 101.61 8.92689L98.7851 12.1648C98.1629 11.327 97.3523 10.6473 96.4188 10.1805C95.4854 9.7138 94.4552 9.47315 93.4116 9.47802C91.7848 9.44672 90.2076 10.0382 89.0025 11.1314C88.3772 11.7059 87.8863 12.4112 87.5647 13.1971C87.2432 13.983 87.0991 14.8302 87.1425 15.6783C87.0989 16.5245 87.2293 17.3707 87.5255 18.1645C87.8217 18.9584 88.2775 19.6832 88.8648 20.294C89.9983 21.3168 91.4715 21.8815 92.9983 21.8785ZM105.054 25.8742V5.41345H109.601V21.8096H118.35V25.8742H105.054ZM138.329 23.0498C136.259 24.9971 133.524 26.0813 130.682 26.0813C127.84 26.0813 125.105 24.9971 123.035 23.0498C122.025 22.0817 121.229 20.9141 120.695 19.6214C120.161 18.3286 119.902 16.9388 119.935 15.5406C119.896 14.1415 120.152 12.7498 120.686 11.4561C121.22 10.1624 122.02 8.99552 123.035 8.03139C125.105 6.0841 127.84 4.99988 130.682 4.99988C133.524 4.99988 136.259 6.0841 138.329 8.03139C139.338 8.99945 140.135 10.167 140.669 11.4598C141.203 12.7526 141.461 14.1423 141.429 15.5406C141.468 16.9397 141.212 18.3313 140.678 19.6251C140.144 20.9188 139.343 22.0856 138.329 23.0498ZM136.744 15.5406C136.757 13.8094 136.118 12.137 134.953 10.856C134.405 10.2489 133.735 9.76367 132.988 9.43155C132.24 9.09943 131.431 8.92783 130.613 8.92783C129.795 8.92783 128.986 9.09943 128.238 9.43155C127.491 9.76367 126.821 10.2489 126.273 10.856C125.095 12.1288 124.454 13.8067 124.482 15.5406C124.469 17.2717 125.108 18.9442 126.273 20.2252C126.821 20.8322 127.491 21.3175 128.238 21.6496C128.986 21.9817 129.795 22.1533 130.613 22.1533C131.431 22.1533 132.24 21.9817 132.988 21.6496C133.735 21.3175 134.405 20.8322 134.953 20.2252C135.55 19.6038 136.016 18.869 136.323 18.0644C136.631 17.2597 136.774 16.4015 136.744 15.5406ZM150.729 20.6384C151.093 21.1096 151.564 21.4868 152.104 21.7385C152.643 21.9902 153.235 22.1091 153.829 22.0852C154.415 22.1163 155 22.0002 155.529 21.7475C156.059 21.4948 156.516 21.1135 156.861 20.6384C157.652 19.5132 158.04 18.1539 157.963 16.7805V5.4823H162.51V16.9183C162.51 19.8806 161.683 22.1541 160.03 23.7386C159.197 24.5368 158.214 25.1611 157.138 25.5751C156.061 25.9891 154.913 26.1845 153.76 26.1498C152.597 26.1845 151.439 25.9894 150.351 25.5756C149.264 25.1619 148.268 24.5376 147.422 23.7386C145.769 22.1541 144.942 19.8806 144.942 16.9183V5.4823H149.489V16.7805C149.488 18.1647 149.922 19.5143 150.729 20.6384ZM182.902 8.10022C184.831 9.8914 185.864 12.3715 185.864 15.5405C185.864 18.7095 184.899 21.2585 183.039 23.1186C181.179 24.9787 178.217 25.8742 174.359 25.8742H167.263V5.41345H174.497C178.148 5.41345 180.973 6.30904 182.902 8.10022ZM179.595 20.294C180.697 19.2607 181.248 17.6762 181.248 15.6783C181.248 13.6804 180.697 12.0959 179.595 11.0626C178.492 10.0292 176.77 9.40916 174.428 9.40916H171.879V21.8785H174.772C176.521 21.9717 178.242 21.4064 179.595 20.294ZM211.836 5.41345H216.383V25.8742H211.836L202.053 13.0604V25.8742H197.507V5.41345H201.778L211.836 18.5717V5.41345ZM236.017 25.8742L234.088 21.4652H225.476L223.548 25.8742H218.656L227.474 5.41345H231.883L240.702 25.8742H236.017ZM229.886 11.5448L227.337 17.4695H232.435L229.886 11.5448ZM250.484 9.40911V25.9431H245.937V9.40911H240.15V5.4823H256.34V9.40911H250.484ZM259.578 5.41345H264.125V25.8742H259.578V5.41345ZM276.732 18.434L281.967 5.41345H286.928L278.73 25.8742H274.872L266.674 5.41345H271.634L276.732 18.434ZM304.082 5.41345V9.47805H293.886V13.6804H303.049V17.6073H293.886V21.8785H304.426V25.9431H289.339V5.48234H304.082V5.41345Z" fill="black"/>
<path opacity="0.65" d="M48.4917 26.4639L36.2381 14.2303H49.697V4.99988H28.203V14.2303L40.4565 26.4639H48.4917ZM37.4434 47.8176H29.4082L39.5526 57.952L41.5614 60.0512H28.203V69.2816H49.697V59.9507L43.5703 53.9243L37.4434 47.8176ZM61.9506 26.4638V39.8022L59.8414 37.693L49.6969 27.5585V35.6842L55.7233 41.7107L61.8501 47.8275H71.0906V26.4638H61.9506ZM28.2027 38.5969L16.0494 26.4638H6.8089V47.8174H15.9489V34.479L28.2027 46.7226V38.5969Z" fill="black"/>
<path d="M108.315 47.1051C109.908 47.1051 111.351 46.4206 112.363 45.3343L110.518 43.6974C109.982 44.3671 109.193 44.7986 108.315 44.7986C106.753 44.7986 105.429 43.4296 105.429 41.8076C105.429 40.2005 106.753 38.8315 108.315 38.8315C109.179 38.8315 109.982 39.263 110.503 39.9326L112.363 38.2809C111.351 37.2095 109.908 36.525 108.315 36.525C105.324 36.525 102.81 38.9356 102.81 41.8076C102.81 44.6796 105.324 47.1051 108.315 47.1051ZM119.711 47.1051C122.687 47.1051 125.202 44.6796 125.202 41.8076C125.202 38.9356 122.687 36.525 119.711 36.525C116.72 36.525 114.205 38.9356 114.205 41.8076C114.205 44.6796 116.72 47.1051 119.711 47.1051ZM119.711 44.7986C118.149 44.7986 116.824 43.4296 116.824 41.8076C116.824 40.2005 118.149 38.8315 119.711 38.8315C121.274 38.8315 122.583 40.2005 122.583 41.8076C122.583 43.4296 121.274 44.7986 119.711 44.7986ZM127.794 46.9265H130.339V41.004L133.285 46.3313L136.231 41.004V46.9265H138.776V36.7036H136.231L133.285 42.0308L130.339 36.7036H127.794V46.9265ZM141.907 46.9265H144.452V41.004L147.398 46.3313L150.345 41.004V46.9265H152.889V36.7036H150.345L147.398 42.0308L144.452 36.7036H141.907V46.9265ZM160.544 47.1051C163.342 47.1051 165.291 45.1855 165.291 42.4475V36.7036H162.762V42.3284C162.762 43.7718 161.839 44.7986 160.544 44.7986C159.265 44.7986 158.342 43.7718 158.342 42.3284V36.7036H155.797V42.4475C155.797 45.1855 157.762 47.1051 160.544 47.1051ZM168.201 46.9265H170.746V40.885L175.21 46.9265H177.74V36.7036H175.21V42.7451L170.746 36.7036H168.201V46.9265ZM180.876 46.9265H183.42V36.7036H180.876V46.9265ZM188.957 46.9265H191.501V38.9803H194.612V36.7036H185.862V38.9803H188.957V46.9265ZM200.181 46.9265H202.74V43.3998L206.698 36.7036H203.871L201.46 41.0189L199.154 36.7036H196.222L200.181 43.3998V46.9265ZM218.297 42.9832H220.47V44.2629C219.964 44.6051 219.369 44.7986 218.773 44.7986C217.181 44.7986 215.827 43.4296 215.827 41.8076C215.827 40.2005 217.181 38.8315 218.773 38.8315C219.651 38.8315 220.529 39.2481 221.08 39.9326L222.94 38.2809C221.913 37.1797 220.336 36.525 218.773 36.525C215.753 36.525 213.208 38.9356 213.208 41.8076C213.208 44.6796 215.753 47.1051 218.773 47.1051C220.336 47.1051 221.913 46.4503 222.94 45.3343V41.0636H218.297V42.9832ZM234.397 46.9265L231.971 43.4891C233.415 42.9832 234.337 41.7778 234.337 40.2154C234.337 38.147 232.715 36.7036 230.454 36.7036H225.707V46.9265H228.251V43.7272H229.263L231.51 46.9265H234.397ZM228.251 39.0249H230.23C231.108 39.0249 231.718 39.5011 231.718 40.2154C231.718 40.9296 231.108 41.4058 230.23 41.4058H228.251V39.0249ZM241.956 47.1051C244.932 47.1051 247.447 44.6796 247.447 41.8076C247.447 38.9356 244.932 36.525 241.956 36.525C238.965 36.525 236.45 38.9356 236.45 41.8076C236.45 44.6796 238.965 47.1051 241.956 47.1051ZM241.956 44.7986C240.394 44.7986 239.069 43.4296 239.069 41.8076C239.069 40.2005 240.394 38.8315 241.956 38.8315C243.518 38.8315 244.828 40.2005 244.828 41.8076C244.828 43.4296 243.518 44.7986 241.956 44.7986ZM254.562 47.1051C257.36 47.1051 259.309 45.1855 259.309 42.4475V36.7036H256.78V42.3284C256.78 43.7718 255.857 44.7986 254.562 44.7986C253.283 44.7986 252.36 43.7718 252.36 42.3284V36.7036H249.815V42.4475C249.815 45.1855 251.78 47.1051 254.562 47.1051ZM262.219 46.9265H264.764V43.7272H266.966C269.228 43.7272 270.85 42.2838 270.85 40.2154C270.85 38.147 269.228 36.7036 266.966 36.7036H262.219V46.9265ZM264.764 41.4058V39.0249H266.743C267.621 39.0249 268.231 39.5011 268.231 40.2154C268.231 40.9296 267.621 41.4058 266.743 41.4058H264.764ZM277.371 47.1051C279.901 47.1051 281.463 45.8254 281.463 43.7718C281.463 41.8522 279.99 41.1975 277.698 40.7064C276.181 40.3791 275.689 40.1707 275.689 39.5457C275.689 39.0398 276.151 38.6529 276.969 38.6529C277.922 38.6529 278.948 39.0249 279.886 39.7392L281.18 37.9238C280.094 37.0309 278.755 36.525 277.029 36.525C274.707 36.525 273.13 37.8345 273.13 39.7987C273.13 41.8522 274.752 42.4475 276.939 42.9385C278.427 43.2957 278.904 43.4296 278.904 44.0397C278.904 44.5903 278.413 44.9772 277.46 44.9772C276.21 44.9772 275.094 44.501 274.097 43.6826L272.654 45.3938C273.904 46.5099 275.556 47.1051 277.371 47.1051Z" fill="black"/>
<path d="M15.9465 47.8367H6.80646V69.3007H28.2002V60.0703H15.9465V47.8367ZM61.9481 47.9372V60.0703H49.6944V69.3007H71.0881V47.8367H61.8477L61.9481 47.9372ZM6.80646 26.4831H16.0469L15.9465 26.3826V14.2495H28.2002V5.01904H6.80646V26.4831ZM49.6944 5.01904V14.2495H61.9481V26.4831H71.0881V5.01904H49.6944Z" fill="black"/>
</g>
</svg>
